<?xml version="1.0" encoding="UTF-8"?>
<!DOCTYPE svg PUBLIC "-//W3C//DTD SVG 1.1//EN" "http://www.w3.org/Graphics/SVG/1.1/DTD/svg11.dtd">
<svg xmlns="http://www.w3.org/2000/svg" xmlns:xlink="http://www.w3.org/1999/xlink" version="1.1" width="961px" height="351px" viewBox="-0.5 -0.5 961 351"><defs/><g><path d="M 0 310 L 40 200 L 920 200 L 960 310 Z" fill="#f9f7ed" stroke="#36393d" stroke-miterlimit="10" pointer-events="all"/><path d="M 460 7 C 460 3.13 466.72 0 475 0 C 478.98 0 482.79 0.74 485.61 2.05 C 488.42 3.36 490 5.14 490 7 L 490 253 C 490 256.87 483.28 260 475 260 C 466.72 260 460 256.87 460 253 Z" fill="#bac8d3" stroke="#23445d" stroke-miterlimit="10" pointer-events="all"/><path d="M 490 7 C 490 10.87 483.28 14 475 14 C 466.72 14 460 10.87 460 7" fill="none" stroke="#23445d" stroke-miterlimit="10" pointer-events="all"/><path d="M 40 239 C 40 222.98 93.73 210 160 210 C 191.83 210 222.35 213.06 244.85 218.49 C 267.36 223.93 280 231.31 280 239 L 280 271 C 280 287.02 226.27 300 160 300 C 93.73 300 40 287.02 40 271 Z" fill="#f8cecc" stroke="#b85450" stroke-miterlimit="10" pointer-events="all"/><path d="M 280 239 C 280 255.02 226.27 268 160 268 C 93.73 268 40 255.02 40 239" fill="none" stroke="#b85450" stroke-miterlimit="10" pointer-events="all"/><path d="M 60 189 C 60 172.98 104.77 160 160 160 C 186.52 160 211.96 163.06 230.71 168.49 C 249.46 173.93 260 181.31 260 189 L 260 221 C 260 237.02 215.23 250 160 250 C 104.77 250 60 237.02 60 221 Z" fill="#ffe6cc" stroke="#d79b00" stroke-miterlimit="10" pointer-events="all"/><path d="M 260 189 C 260 205.02 215.23 218 160 218 C 104.77 218 60 205.02 60 189" fill="none" stroke="#d79b00" stroke-miterlimit="10" pointer-events="all"/><path d="M 80 139 C 80 122.98 115.82 110 160 110 C 181.22 110 201.57 113.06 216.57 118.49 C 231.57 123.93 240 131.31 240 139 L 240 171 C 240 187.02 204.18 200 160 200 C 115.82 200 80 187.02 80 171 Z" fill="#fff2cc" stroke="#d6b656" stroke-miterlimit="10" pointer-events="all"/><path d="M 240 139 C 240 155.02 204.18 168 160 168 C 115.82 168 80 155.02 80 139" fill="none" stroke="#d6b656" stroke-miterlimit="10" pointer-events="all"/><path d="M 100 89 C 100 72.98 126.86 60 160 60 C 175.91 60 191.17 63.06 202.43 68.49 C 213.68 73.93 220 81.31 220 89 L 220 121 C 220 137.02 193.14 150 160 150 C 126.86 150 100 137.02 100 121 Z" fill="#d5e8d4" stroke="#82b366" stroke-miterlimit="10" pointer-events="all"/><path d="M 220 89 C 220 105.02 193.14 118 160 118 C 126.86 118 100 105.02 100 89" fill="none" stroke="#82b366" stroke-miterlimit="10" pointer-events="all"/><path d="M 145 7 C 145 3.13 151.72 0 160 0 C 163.98 0 167.79 0.74 170.61 2.05 C 173.42 3.36 175 5.14 175 7 L 175 83 C 175 86.87 168.28 90 160 90 C 151.72 90 145 86.87 145 83 Z" fill="#bac8d3" stroke="#23445d" stroke-miterlimit="10" pointer-events="all"/><path d="M 175 7 C 175 10.87 168.28 14 160 14 C 151.72 14 145 10.87 145 7" fill="none" stroke="#23445d" stroke-miterlimit="10" pointer-events="all"/><path d="M 780 7 C 780 3.13 786.72 0 795 0 C 798.98 0 802.79 0.74 805.61 2.05 C 808.42 3.36 810 5.14 810 7 L 810 253 C 810 256.87 803.28 260 795 260 C 786.72 260 780 256.87 780 253 Z" fill="#bac8d3" stroke="#23445d" stroke-miterlimit="10" pointer-events="all"/><path d="M 810 7 C 810 10.87 803.28 14 795 14 C 786.72 14 780 10.87 780 7" fill="none" stroke="#23445d" stroke-miterlimit="10" pointer-events="all"/><rect x="0" y="310" width="960" height="40" fill="#f9f7ed" stroke="#36393d" pointer-events="all"/></g></svg>