<?xml version="1.0" encoding="UTF-8" standalone="no"?>
<!-- Created with Inkscape (http://www.inkscape.org/) -->

<svg
   width="210mm"
   height="297mm"
   viewBox="0 0 210 297"
   version="1.1"
   id="svg5"
   inkscape:version="1.2.1 (9c6d41e410, 2022-07-14)"
   sodipodi:docname="olympic-circles.svg"
   xmlns:inkscape="http://www.inkscape.org/namespaces/inkscape"
   xmlns:sodipodi="http://sodipodi.sourceforge.net/DTD/sodipodi-0.dtd"
   xmlns="http://www.w3.org/2000/svg"
   xmlns:svg="http://www.w3.org/2000/svg">
  <sodipodi:namedview
     id="namedview7"
     pagecolor="#ffffff"
     bordercolor="#000000"
     borderopacity="0.25"
     inkscape:showpageshadow="2"
     inkscape:pageopacity="0.0"
     inkscape:pagecheckerboard="0"
     inkscape:deskcolor="#d1d1d1"
     inkscape:document-units="mm"
     showgrid="false"
     inkscape:zoom="0.73851712"
     inkscape:cx="490.17144"
     inkscape:cy="299.24831"
     inkscape:window-width="1920"
     inkscape:window-height="1009"
     inkscape:window-x="-8"
     inkscape:window-y="1072"
     inkscape:window-maximized="1"
     inkscape:current-layer="layer1" />
  <defs
     id="defs2" />
  <g
     inkscape:label="Layer 1"
     inkscape:groupmode="layer"
     id="layer1">
    <path
       id="path342"
       style="fill:#2b75c1;stroke:none;stroke-width:1.70148;stroke-linecap:round;stroke-linejoin:round;fill-opacity:1"
       d="M 50.000049 0 A 50 50 0 0 0 0 50.000049 A 50 50 0 0 0 50.000049 100.0001 A 50 50 0 0 0 55.009045 99.746883 A 50 50 0 0 1 56.133008 89.510299 A 40 40 0 0 1 50.000049 89.999674 A 40 40 0 0 1 10.000423 50.000049 A 40 40 0 0 1 50.000049 9.9999064 A 40 40 0 0 1 90.000191 50.000049 A 40 40 0 0 1 67.61086 85.876412 A 40 40 0 0 0 65.096802 97.66484 A 50 50 0 0 0 100.0001 50.000049 A 50 50 0 0 0 50.000049 0 z M 65.096802 97.66484 A 50 50 0 0 1 63.862252 98.03846 A 50 50 0 0 0 65.096802 97.66484 z M 63.862252 98.03846 A 50 50 0 0 1 61.367314 98.689067 A 50 50 0 0 0 63.862252 98.03846 z M 55.009045 99.746883 A 50 50 0 0 0 56.290621 99.601156 A 50 50 0 0 1 55.009045 99.746883 z M 56.290621 99.601156 A 50 50 0 0 0 57.559794 99.423389 A 50 50 0 0 1 56.290621 99.601156 z M 64.688558 87.16884 A 40 40 0 0 1 64.086011 87.403967 A 40 40 0 0 0 64.688558 87.16884 z M 62.115072 88.092297 A 40 40 0 0 1 60.630408 88.534648 A 40 40 0 0 0 62.115072 88.092297 z M 59.020687 88.943408 A 40 40 0 0 1 57.154651 89.334599 A 40 40 0 0 0 59.020687 88.943408 z M 61.354395 98.692167 A 50 50 0 0 1 60.112093 98.965535 A 50 50 0 0 0 61.354395 98.692167 z M 60.062484 98.975354 A 50 50 0 0 1 58.840336 99.210482 A 50 50 0 0 0 60.062484 98.975354 z M 58.840336 99.210482 A 50 50 0 0 1 57.569096 99.422355 A 50 50 0 0 0 58.840336 99.210482 z " />
    <path
       id="path472"
       style="fill:#00a34d;stroke:none;stroke-width:1.70148;stroke-linecap:round;stroke-linejoin:round;fill-opacity:1"
       d="M 214.9998 50.000049 A 50 50 0 0 0 209.99648 50.282719 A 50 50 0 0 1 208.88492 60.487264 A 40 40 0 0 1 214.9998 59.999955 A 40 40 0 0 1 252.42645 85.894499 A 39.999964 40 0 0 0 263.88467 89.512366 A 50 50 0 0 0 214.9998 50.000049 z M 263.88467 89.512366 A 50 50 0 0 1 264.13788 90.772754 A 50 50 0 0 0 263.88467 89.512366 z M 264.13788 90.772754 A 50 50 0 0 1 264.35596 92.021773 A 50 50 0 0 0 264.13788 90.772754 z M 208.68494 50.430514 A 50 50 0 0 0 206.51453 50.754008 A 50 50 0 0 1 208.68494 50.430514 z M 204.6857 51.10024 A 50 50 0 0 0 203.1354 51.45164 A 50 50 0 0 1 204.6857 51.10024 z M 200.79705 52.077958 A 50 50 0 0 0 199.90563 52.346159 A 50 50 0 0 1 200.79705 52.077958 z M 199.90304 52.346676 A 50 50 0 0 0 164.99975 100.0001 A 50 50 0 0 0 214.9998 150.00015 A 50 50 0 0 0 264.99985 100.0001 A 50 50 0 0 0 264.99623 99.717428 A 49.999955 50 0 0 1 254.93173 97.662773 A 40 40 0 0 1 255.00046 100.0001 A 40 40 0 0 1 214.9998 139.99972 A 40 40 0 0 1 175.00017 100.0001 A 40 40 0 0 1 197.39002 64.123218 A 40 40 0 0 0 199.90304 52.346676 z M 207.82659 60.669165 A 40 40 0 0 0 205.98639 61.055188 A 40 40 0 0 1 207.82659 60.669165 z M 204.35445 61.47015 A 40 40 0 0 0 202.89408 61.904749 A 40 40 0 0 1 204.35445 61.47015 z M 200.9004 62.601347 A 40 40 0 0 0 200.33764 62.820972 A 40 40 0 0 1 200.9004 62.601347 z M 252.8285 87.011226 A 40 40 0 0 1 252.84348 87.055151 A 40 40 0 0 0 252.8285 87.011226 z M 253.2016 88.151725 A 40 40 0 0 1 253.21865 88.208053 A 40 40 0 0 0 253.2016 88.151725 z M 253.53543 89.289124 A 40 40 0 0 1 253.56127 89.380591 A 40 40 0 0 0 253.53543 89.289124 z M 253.82843 90.406368 A 40 40 0 0 1 253.87133 90.578451 A 40 40 0 0 0 253.82843 90.406368 z M 254.09353 91.549967 A 40 40 0 0 1 254.13849 91.756673 A 40 40 0 0 0 254.09353 91.549967 z M 264.35957 92.043477 A 50 50 0 0 1 264.54096 93.266659 A 50 50 0 0 0 264.35957 92.043477 z M 254.3266 92.711654 A 40 40 0 0 1 254.36897 92.936446 A 40 40 0 0 0 254.3266 92.711654 z M 264.54923 93.322469 A 50 50 0 0 1 264.69909 94.553918 A 50 50 0 0 0 264.54923 93.322469 z M 254.52452 93.872306 A 40 40 0 0 1 254.56379 94.121387 A 40 40 0 0 0 254.52452 93.872306 z M 264.70426 94.59526 A 50 50 0 0 1 264.82466 95.856165 A 50 50 0 0 0 264.70426 94.59526 z M 254.68626 95.025724 A 40 40 0 0 1 254.72347 95.314079 A 40 40 0 0 0 254.68626 95.025724 z M 264.8257 95.868567 A 50 50 0 0 1 264.91561 97.148075 A 50 50 0 0 0 264.8257 95.868567 z M 264.91561 97.148075 A 50 50 0 0 1 264.97246 98.432235 A 50 50 0 0 0 264.91561 97.148075 z M 264.97246 98.432235 A 50 50 0 0 1 264.99623 99.714844 A 50 50 0 0 0 264.97246 98.432235 z M 254.81494 96.193612 A 40 40 0 0 1 254.84594 96.499019 A 40 40 0 0 0 254.81494 96.193612 z " />
    <path
       id="path474"
       style="fill:#faad3a;stroke:none;stroke-width:1.70148;stroke-linecap:round;stroke-linejoin:round;fill-opacity:1"
       d="M 104.99979 50.000049 A 50 50 0 0 0 99.99648 50.282719 A 50 50 0 0 1 98.88492 60.487264 A 40 40 0 0 1 104.99979 59.999955 A 40 40 0 0 1 142.42645 85.894499 A 40 40 0 0 0 153.88518 89.512366 A 50 50 0 0 0 104.99979 50.000049 z M 153.88518 89.512366 A 50 50 0 0 1 154.1384 90.772754 A 50 50 0 0 0 153.88518 89.512366 z M 154.1384 90.772754 A 50 50 0 0 1 154.35699 92.024874 A 50 50 0 0 0 154.1384 90.772754 z M 98.684932 50.430514 A 50 50 0 0 0 96.514522 50.754008 A 50 50 0 0 1 98.684932 50.430514 z M 94.685693 51.10024 A 50 50 0 0 0 93.1354 51.45164 A 50 50 0 0 1 94.685693 51.10024 z M 90.797042 52.077958 A 50 50 0 0 0 89.905623 52.346159 A 50 50 0 0 1 90.797042 52.077958 z M 89.90304 52.346676 A 50 50 0 0 0 54.999744 100.0001 A 50 50 0 0 0 104.99979 150.00015 A 50 50 0 0 0 155.00036 100.0001 A 50 50 0 0 0 154.99674 99.717428 A 50 50 0 0 1 144.93172 97.662773 A 40 40 0 0 1 145.00045 100.0001 A 40 40 0 0 1 104.99979 139.99972 A 40 40 0 0 1 65.000167 100.0001 A 40 40 0 0 1 87.390015 64.123218 A 40 40 0 0 0 89.90304 52.346676 z M 97.826587 60.669165 A 40 40 0 0 0 95.986389 61.055188 A 40 40 0 0 1 97.826587 60.669165 z M 94.354447 61.47015 A 40 40 0 0 0 92.894071 61.904749 A 40 40 0 0 1 94.354447 61.47015 z M 90.900395 62.601347 A 40 40 0 0 0 90.337638 62.820972 A 40 40 0 0 1 90.900395 62.601347 z M 142.82849 87.011226 A 40 40 0 0 1 142.84348 87.055151 A 40 40 0 0 0 142.82849 87.011226 z M 143.2016 88.151725 A 40 40 0 0 1 143.21865 88.208053 A 40 40 0 0 0 143.2016 88.151725 z M 143.53542 89.289124 A 40 40 0 0 1 143.56126 89.380591 A 40 40 0 0 0 143.53542 89.289124 z M 143.82843 90.406368 A 40 40 0 0 1 143.87132 90.578451 A 40 40 0 0 0 143.82843 90.406368 z M 144.09353 91.549967 A 40 40 0 0 1 144.13849 91.756673 A 40 40 0 0 0 144.09353 91.549967 z M 154.36009 92.042961 A 50 50 0 0 1 154.54147 93.266659 A 50 50 0 0 0 154.36009 92.042961 z M 144.32659 92.711654 A 40 40 0 0 1 144.36897 92.936446 A 40 40 0 0 0 144.32659 92.711654 z M 154.54974 93.322469 A 50 50 0 0 1 154.6996 94.553918 A 50 50 0 0 0 154.54974 93.322469 z M 144.52451 93.872306 A 40 40 0 0 1 144.56379 94.121387 A 40 40 0 0 0 144.52451 93.872306 z M 154.70477 94.59526 A 50 50 0 0 1 154.82517 95.856165 A 50 50 0 0 0 154.70477 94.59526 z M 144.68626 95.025724 A 40 40 0 0 1 144.72295 95.313045 A 40 40 0 0 0 144.68626 95.025724 z M 154.82621 95.868567 A 50 50 0 0 1 154.91613 97.148075 A 50 50 0 0 0 154.82621 95.868567 z M 154.91613 97.148075 A 50 50 0 0 1 154.97297 98.432235 A 50 50 0 0 0 154.91613 97.148075 z M 154.97297 98.432235 A 50 50 0 0 1 154.99674 99.714844 A 50 50 0 0 0 154.97297 98.432235 z M 144.8263 96.303166 A 40 40 0 0 1 144.84387 96.479899 A 40 40 0 0 0 144.8263 96.303166 z " />
    <path
       id="path476"
       style="fill:#ee1641;stroke:none;stroke-width:1.70148;stroke-linecap:round;stroke-linejoin:round;fill-opacity:1"
       d="M 270.00006 0 A 49.999955 50 0 0 0 220.00001 50.000049 A 49.999955 50 0 0 0 220.00931 50.253263 A 50 50 0 0 1 230.09707 52.335307 A 39.999964 40 0 0 1 230.00043 50.000049 A 39.999964 40 0 0 1 270.00006 9.9999064 A 39.999964 40 0 0 1 310.0002 50.000049 A 39.999964 40 0 0 1 270.00006 89.999674 A 39.999964 40 0 0 1 232.59304 64.077226 A 40 40 0 0 0 221.13069 60.476412 A 49.999955 50 0 0 0 270.00006 100.0001 A 49.999955 50 0 0 0 320.00011 50.000049 A 49.999955 50 0 0 0 270.00006 0 z M 220.12248 53.262382 A 49.999955 50 0 0 0 220.18243 54.111943 A 49.999955 50 0 0 1 220.12248 53.262382 z M 230.28775 54.514502 A 39.999964 40 0 0 0 230.37043 55.174927 A 39.999964 40 0 0 1 230.28775 54.514502 z M 220.493 56.869914 A 49.999955 50 0 0 0 220.66818 58.0316 A 49.999955 50 0 0 1 220.493 56.869914 z M 230.84017 57.986125 A 39.999964 40 0 0 0 230.95076 58.512708 A 39.999964 40 0 0 1 230.84017 57.986125 z M 231.73314 61.528027 A 39.999964 40 0 0 0 231.82771 61.845321 A 39.999964 40 0 0 1 231.73314 61.528027 z " />
    <path
       id="path478"
       style="fill:#000000;stroke:none;stroke-width:1.70148;stroke-linecap:round;stroke-linejoin:round;fill-opacity:1"
       d="M 160.00005 0 A 50 50 0 0 0 110 50.000049 A 50 50 0 0 0 110.00931 50.253263 A 50 50 0 0 1 120.09706 52.335307 A 40 40 0 0 1 120.00043 50.000049 A 40 40 0 0 1 160.00005 9.9999064 A 40 40 0 0 1 200.0002 50.000049 A 40 40 0 0 1 177.61086 85.876412 A 40 40 0 0 0 175.09681 97.66484 A 50 50 0 0 0 210.0001 50.000049 A 50 50 0 0 0 160.00005 0 z M 175.09681 97.66484 A 50 50 0 0 1 173.86226 98.03846 A 50 50 0 0 0 175.09681 97.66484 z M 173.86226 98.03846 A 50 50 0 0 1 171.36732 98.689067 A 50 50 0 0 0 173.86226 98.03846 z M 110.12248 53.262382 A 50 50 0 0 0 110.18242 54.111943 A 50 50 0 0 1 110.12248 53.262382 z M 120.28775 54.514502 A 40 40 0 0 0 120.37043 55.174927 A 40 40 0 0 1 120.28775 54.514502 z M 110.493 56.869914 A 50 50 0 0 0 110.66818 58.0316 A 50 50 0 0 1 110.493 56.869914 z M 111.13068 60.476412 A 50 50 0 0 0 160.00005 100.0001 A 50 50 0 0 0 165.00905 99.746883 A 50 50 0 0 1 166.13301 89.510299 A 40 40 0 0 1 160.00005 89.999674 A 40 40 0 0 1 122.59303 64.077226 A 40 40 0 0 0 111.13068 60.476412 z M 165.00905 99.746883 A 50 50 0 0 0 166.29062 99.601156 A 50 50 0 0 1 165.00905 99.746883 z M 166.29062 99.601156 A 50 50 0 0 0 167.5598 99.423389 A 50 50 0 0 1 166.29062 99.601156 z M 121.73314 61.528027 A 40 40 0 0 0 121.82771 61.845321 A 40 40 0 0 1 121.73314 61.528027 z M 174.68856 87.16884 A 40 40 0 0 1 174.08601 87.403967 A 40 40 0 0 0 174.68856 87.16884 z M 172.11508 88.092297 A 40 40 0 0 1 170.63041 88.534648 A 40 40 0 0 0 172.11508 88.092297 z M 169.02069 88.943408 A 40 40 0 0 1 167.15465 89.334599 A 40 40 0 0 0 169.02069 88.943408 z M 171.3544 98.692167 A 50 50 0 0 1 170.11261 98.965535 A 50 50 0 0 0 171.3544 98.692167 z M 170.05784 98.975871 A 50 50 0 0 1 168.84034 99.210482 A 50 50 0 0 0 170.05784 98.975871 z M 168.84034 99.210482 A 50 50 0 0 1 167.5691 99.422355 A 50 50 0 0 0 168.84034 99.210482 z " />
  </g>
</svg>
