<?xml version="1.0" encoding="UTF-8" standalone="no"?>
<!-- Created with Inkscape (http://www.inkscape.org/) -->

<svg
   width="320.00009mm"
   height="150.00015mm"
   viewBox="0 0 320.00009 150.00015"
   version="1.1"
   id="svg5"
   inkscape:version="1.2.1 (9c6d41e410, 2022-07-14)"
   sodipodi:docname="olympic-circles.svg"
   xmlns:inkscape="http://www.inkscape.org/namespaces/inkscape"
   xmlns:sodipodi="http://sodipodi.sourceforge.net/DTD/sodipodi-0.dtd"
   xmlns="http://www.w3.org/2000/svg"
   xmlns:svg="http://www.w3.org/2000/svg">
  <sodipodi:namedview
     id="namedview7"
     pagecolor="#ffffff"
     bordercolor="#000000"
     borderopacity="0.25"
     inkscape:showpageshadow="2"
     inkscape:pageopacity="0.0"
     inkscape:pagecheckerboard="0"
     inkscape:deskcolor="#d1d1d1"
     inkscape:document-units="mm"
     showgrid="false"
     inkscape:zoom="0.73851712"
     inkscape:cx="490.17144"
     inkscape:cy="299.24831"
     inkscape:window-width="1920"
     inkscape:window-height="1009"
     inkscape:window-x="-8"
     inkscape:window-y="1072"
     inkscape:window-maximized="1"
     inkscape:current-layer="layer1" />
  <defs
     id="defs2" />
  <g
     inkscape:label="Layer 1"
     inkscape:groupmode="layer"
     id="layer1">
    <path
       id="path342"
       style="fill:#2b75c1;fill-opacity:1;stroke:none;stroke-width:1.70148;stroke-linecap:round;stroke-linejoin:round"
       d="M 50.000049,0 A 50,50 0 0 0 0,50.000049 50,50 0 0 0 50.000049,100.0001 50,50 0 0 0 55.009045,99.746883 50,50 0 0 1 56.133008,89.510299 40,40 0 0 1 50.000049,89.999674 40,40 0 0 1 10.000423,50.000049 40,40 0 0 1 50.000049,9.9999064 40,40 0 0 1 90.000191,50.000049 40,40 0 0 1 67.61086,85.876412 40,40 0 0 0 65.096802,97.66484 50,50 0 0 0 100.0001,50.000049 50,50 0 0 0 50.000049,0 Z m 15.096753,97.66484 a 50,50 0 0 1 -1.23455,0.37362 50,50 0 0 0 1.23455,-0.37362 z m -1.23455,0.37362 a 50,50 0 0 1 -2.494938,0.650607 50,50 0 0 0 2.494938,-0.650607 z m -8.853207,1.708423 a 50,50 0 0 0 1.281576,-0.145727 50,50 0 0 1 -1.281576,0.145727 z m 1.281576,-0.145727 a 50,50 0 0 0 1.269173,-0.177767 50,50 0 0 1 -1.269173,0.177767 z M 64.688558,87.16884 a 40,40 0 0 1 -0.602547,0.235127 40,40 0 0 0 0.602547,-0.235127 z m -2.573486,0.923457 a 40,40 0 0 1 -1.484664,0.442351 40,40 0 0 0 1.484664,-0.442351 z m -3.094385,0.851111 a 40,40 0 0 1 -1.866036,0.391191 40,40 0 0 0 1.866036,-0.391191 z m 2.333708,9.748759 a 50,50 0 0 1 -1.242302,0.273368 50,50 0 0 0 1.242302,-0.273368 z m -1.291911,0.283187 a 50,50 0 0 1 -1.222148,0.235128 50,50 0 0 0 1.222148,-0.235128 z m -1.222148,0.235128 a 50,50 0 0 1 -1.27124,0.211873 50,50 0 0 0 1.27124,-0.211873 z"
       inkscape:export-filename="olympic-circles-600px"
       inkscape:export-xdpi="47.624985"
       inkscape:export-ydpi="47.624985" />
    <path
       id="path472"
       style="fill:#00a34d;fill-opacity:1;stroke:none;stroke-width:1.70148;stroke-linecap:round;stroke-linejoin:round"
       d="m 214.9998,50.000049 a 50,50 0 0 0 -5.00332,0.28267 50,50 0 0 1 -1.11156,10.204545 40,40 0 0 1 6.11488,-0.487309 40,40 0 0 1 37.42665,25.894544 39.999964,40 0 0 0 11.45822,3.617867 50,50 0 0 0 -48.88487,-39.512317 z m 48.88487,39.512317 a 50,50 0 0 1 0.25321,1.260388 50,50 0 0 0 -0.25321,-1.260388 z m 0.25321,1.260388 a 50,50 0 0 1 0.21808,1.249019 50,50 0 0 0 -0.21808,-1.249019 z m -55.45294,-40.34224 a 50,50 0 0 0 -2.17041,0.323494 50,50 0 0 1 2.17041,-0.323494 z m -3.99924,0.669726 a 50,50 0 0 0 -1.5503,0.3514 50,50 0 0 1 1.5503,-0.3514 z m -3.88865,0.977718 a 50,50 0 0 0 -0.89142,0.268201 50,50 0 0 1 0.89142,-0.268201 z m -0.89401,0.268718 a 50,50 0 0 0 -34.90329,47.653424 50,50 0 0 0 50.00005,50.00005 50,50 0 0 0 50.00005,-50.00005 50,50 0 0 0 -0.004,-0.282672 49.999955,50 0 0 1 -10.0645,-2.054655 40,40 0 0 1 0.0687,2.337327 40,40 0 0 1 -40.00066,39.99962 40,40 0 0 1 -39.99963,-39.99962 40,40 0 0 1 22.38985,-35.876882 40,40 0 0 0 2.51302,-11.776542 z m 7.92355,8.322489 a 40,40 0 0 0 -1.8402,0.386023 40,40 0 0 1 1.8402,-0.386023 z m -3.47214,0.800985 a 40,40 0 0 0 -1.46037,0.434599 40,40 0 0 1 1.46037,-0.434599 z m -3.45405,1.131197 a 40,40 0 0 0 -0.56276,0.219625 40,40 0 0 1 0.56276,-0.219625 z m 51.9281,24.409879 a 40,40 0 0 1 0.015,0.04393 40,40 0 0 0 -0.015,-0.04393 z m 0.3731,1.140499 a 40,40 0 0 1 0.017,0.05633 40,40 0 0 0 -0.017,-0.05633 z m 0.33383,1.137399 a 40,40 0 0 1 0.0258,0.09147 40,40 0 0 0 -0.0258,-0.09147 z m 0.293,1.117244 a 40,40 0 0 1 0.0429,0.172083 40,40 0 0 0 -0.0429,-0.172083 z m 0.2651,1.143599 a 40,40 0 0 1 0.045,0.206706 40,40 0 0 0 -0.045,-0.206706 z m 10.26604,0.49351 a 50,50 0 0 1 0.18139,1.223182 50,50 0 0 0 -0.18139,-1.223182 z m -10.03297,0.668177 a 40,40 0 0 1 0.0424,0.224792 40,40 0 0 0 -0.0424,-0.224792 z m 10.22263,0.610815 a 50,50 0 0 1 0.14986,1.231449 50,50 0 0 0 -0.14986,-1.231449 z m -10.02471,0.549837 a 40,40 0 0 1 0.0393,0.249081 40,40 0 0 0 -0.0393,-0.249081 z m 10.17974,0.722954 a 50,50 0 0 1 0.1204,1.260905 50,50 0 0 0 -0.1204,-1.260905 z m -10.018,0.430464 a 40,40 0 0 1 0.0372,0.288355 40,40 0 0 0 -0.0372,-0.288355 z m 10.13944,0.842843 a 50,50 0 0 1 0.0899,1.279508 50,50 0 0 0 -0.0899,-1.279508 z m 0.0899,1.279508 a 50,50 0 0 1 0.0568,1.28416 50,50 0 0 0 -0.0568,-1.28416 z m 0.0568,1.28416 a 50,50 0 0 1 0.0238,1.282609 50,50 0 0 0 -0.0238,-1.282609 z m -10.15752,-2.238623 a 40,40 0 0 1 0.031,0.305407 40,40 0 0 0 -0.031,-0.305407 z" />
    <path
       id="path474"
       style="fill:#faad3a;fill-opacity:1;stroke:none;stroke-width:1.70148;stroke-linecap:round;stroke-linejoin:round"
       d="m 104.99979,50.000049 a 50,50 0 0 0 -5.00331,0.28267 50,50 0 0 1 -1.11156,10.204545 40,40 0 0 1 6.11487,-0.487309 40,40 0 0 1 37.42666,25.894544 40,40 0 0 0 11.45873,3.617867 50,50 0 0 0 -48.88539,-39.512317 z m 48.88539,39.512317 a 50,50 0 0 1 0.25322,1.260388 50,50 0 0 0 -0.25322,-1.260388 z m 0.25322,1.260388 a 50,50 0 0 1 0.21859,1.25212 50,50 0 0 0 -0.21859,-1.25212 z M 98.684932,50.430514 a 50,50 0 0 0 -2.17041,0.323494 50,50 0 0 1 2.17041,-0.323494 z m -3.999239,0.669726 a 50,50 0 0 0 -1.550293,0.3514 50,50 0 0 1 1.550293,-0.3514 z m -3.888651,0.977718 a 50,50 0 0 0 -0.891419,0.268201 50,50 0 0 1 0.891419,-0.268201 z m -0.894002,0.268718 a 50,50 0 0 0 -34.903296,47.653424 50,50 0 0 0 50.000046,50.00005 50,50 0 0 0 50.00057,-50.00005 50,50 0 0 0 -0.004,-0.282672 50,50 0 0 1 -10.06502,-2.054655 40,40 0 0 1 0.0687,2.337327 40,40 0 0 1 -40.00066,39.99962 A 40,40 0 0 1 65.000167,100.0001 40,40 0 0 1 87.390015,64.123218 40,40 0 0 0 89.90304,52.346676 Z m 7.923547,8.322489 a 40,40 0 0 0 -1.840198,0.386023 40,40 0 0 1 1.840198,-0.386023 z m -3.47214,0.800985 a 40,40 0 0 0 -1.460376,0.434599 40,40 0 0 1 1.460376,-0.434599 z m -3.454052,1.131197 a 40,40 0 0 0 -0.562757,0.219625 40,40 0 0 1 0.562757,-0.219625 z m 51.928095,24.409879 a 40,40 0 0 1 0.015,0.04393 40,40 0 0 0 -0.015,-0.04393 z m 0.37311,1.140499 a 40,40 0 0 1 0.017,0.05633 40,40 0 0 0 -0.017,-0.05633 z m 0.33382,1.137399 a 40,40 0 0 1 0.0258,0.09147 40,40 0 0 0 -0.0258,-0.09147 z m 0.29301,1.117244 a 40,40 0 0 1 0.0429,0.172083 40,40 0 0 0 -0.0429,-0.172083 z m 0.2651,1.143599 a 40,40 0 0 1 0.045,0.206706 40,40 0 0 0 -0.045,-0.206706 z m 10.26656,0.492994 a 50,50 0 0 1 0.18138,1.223698 50,50 0 0 0 -0.18138,-1.223698 z m -10.0335,0.668693 a 40,40 0 0 1 0.0424,0.224792 40,40 0 0 0 -0.0424,-0.224792 z m 10.22315,0.610815 a 50,50 0 0 1 0.14986,1.231449 50,50 0 0 0 -0.14986,-1.231449 z m -10.02523,0.549837 a 40,40 0 0 1 0.0393,0.249081 40,40 0 0 0 -0.0393,-0.249081 z m 10.18026,0.722954 a 50,50 0 0 1 0.1204,1.260905 50,50 0 0 0 -0.1204,-1.260905 z m -10.01851,0.430464 a 40,40 0 0 1 0.0367,0.287321 40,40 0 0 0 -0.0367,-0.287321 z m 10.13995,0.842843 a 50,50 0 0 1 0.0899,1.279508 50,50 0 0 0 -0.0899,-1.279508 z m 0.0899,1.279508 a 50,50 0 0 1 0.0568,1.28416 50,50 0 0 0 -0.0568,-1.28416 z m 0.0568,1.28416 a 50,50 0 0 1 0.0238,1.282609 50,50 0 0 0 -0.0238,-1.282609 z M 144.8263,96.303166 a 40,40 0 0 1 0.0176,0.176733 40,40 0 0 0 -0.0176,-0.176733 z" />
    <path
       id="path476"
       style="fill:#ee1641;fill-opacity:1;stroke:none;stroke-width:1.70148;stroke-linecap:round;stroke-linejoin:round"
       d="m 270.00006,0 a 49.999955,50 0 0 0 -50.00005,50.000049 49.999955,50 0 0 0 0.009,0.253214 50,50 0 0 1 10.08776,2.082044 39.999964,40 0 0 1 -0.0966,-2.335258 A 39.999964,40 0 0 1 270.00006,9.9999064 39.999964,40 0 0 1 310.0002,50.000049 39.999964,40 0 0 1 270.00006,89.999674 39.999964,40 0 0 1 232.59304,64.077226 40,40 0 0 0 221.13069,60.476412 49.999955,50 0 0 0 270.00006,100.0001 49.999955,50 0 0 0 320.00011,50.000049 49.999955,50 0 0 0 270.00006,0 Z m -49.87758,53.262382 a 49.999955,50 0 0 0 0.06,0.849561 49.999955,50 0 0 1 -0.06,-0.849561 z m 10.16527,1.25212 a 39.999964,40 0 0 0 0.0827,0.660425 39.999964,40 0 0 1 -0.0827,-0.660425 z m -9.79475,2.355412 a 49.999955,50 0 0 0 0.17518,1.161686 49.999955,50 0 0 1 -0.17518,-1.161686 z m 10.34717,1.116211 a 39.999964,40 0 0 0 0.11059,0.526583 39.999964,40 0 0 1 -0.11059,-0.526583 z m 0.89297,3.541902 a 39.999964,40 0 0 0 0.0946,0.317294 39.999964,40 0 0 1 -0.0946,-0.317294 z" />
    <path
       id="path478"
       style="fill:#000000;fill-opacity:1;stroke:none;stroke-width:1.70148;stroke-linecap:round;stroke-linejoin:round"
       d="M 160.00005,0 A 50,50 0 0 0 110,50.000049 a 50,50 0 0 0 0.009,0.253214 50,50 0 0 1 10.08775,2.082044 40,40 0 0 1 -0.0966,-2.335258 A 40,40 0 0 1 160.00005,9.9999064 40,40 0 0 1 200.0002,50.000049 40,40 0 0 1 177.61086,85.876412 40,40 0 0 0 175.09681,97.66484 50,50 0 0 0 210.0001,50.000049 50,50 0 0 0 160.00005,0 Z m 15.09676,97.66484 a 50,50 0 0 1 -1.23455,0.37362 50,50 0 0 0 1.23455,-0.37362 z m -1.23455,0.37362 a 50,50 0 0 1 -2.49494,0.650607 50,50 0 0 0 2.49494,-0.650607 z M 110.12248,53.262382 a 50,50 0 0 0 0.0599,0.849561 50,50 0 0 1 -0.0599,-0.849561 z m 10.16527,1.25212 a 40,40 0 0 0 0.0827,0.660425 40,40 0 0 1 -0.0827,-0.660425 z m -9.79475,2.355412 a 50,50 0 0 0 0.17518,1.161686 50,50 0 0 1 -0.17518,-1.161686 z m 0.63768,3.606498 a 50,50 0 0 0 48.86937,39.523688 50,50 0 0 0 5.009,-0.253217 50,50 0 0 1 1.12396,-10.236584 40,40 0 0 1 -6.13296,0.489375 40,40 0 0 1 -37.40702,-25.922448 40,40 0 0 0 -11.46235,-3.600814 z m 53.87837,39.270471 a 50,50 0 0 0 1.28157,-0.145727 50,50 0 0 1 -1.28157,0.145727 z m 1.28157,-0.145727 a 50,50 0 0 0 1.26918,-0.177767 50,50 0 0 1 -1.26918,0.177767 z M 121.73314,61.528027 a 40,40 0 0 0 0.0946,0.317294 40,40 0 0 1 -0.0946,-0.317294 z m 52.95542,25.640813 a 40,40 0 0 1 -0.60255,0.235127 40,40 0 0 0 0.60255,-0.235127 z m -2.57348,0.923457 a 40,40 0 0 1 -1.48467,0.442351 40,40 0 0 0 1.48467,-0.442351 z m -3.09439,0.851111 a 40,40 0 0 1 -1.86604,0.391191 40,40 0 0 0 1.86604,-0.391191 z m 2.33371,9.748759 a 50,50 0 0 1 -1.24179,0.273368 50,50 0 0 0 1.24179,-0.273368 z m -1.29656,0.283704 a 50,50 0 0 1 -1.2175,0.234611 50,50 0 0 0 1.2175,-0.234611 z m -1.2175,0.234611 a 50,50 0 0 1 -1.27124,0.211873 50,50 0 0 0 1.27124,-0.211873 z" />
  </g>
</svg>
