<?xml version="1.0" encoding="UTF-8"?>
<!DOCTYPE svg PUBLIC "-//W3C//DTD SVG 1.1//EN" "http://www.w3.org/Graphics/SVG/1.1/DTD/svg11.dtd">
<svg xmlns="http://www.w3.org/2000/svg" xmlns:xlink="http://www.w3.org/1999/xlink" version="1.1" width="523px" height="407px" viewBox="-0.5 -0.5 523 407"><defs/><g><path d="M 94.88 320.41 L 231 212.54" fill="none" stroke="#ffd966" stroke-width="2" stroke-miterlimit="10" pointer-events="stroke"/><path d="M 204.22 320.41 L 258.88 215.41" fill="none" stroke="#ffd966" stroke-width="2" stroke-miterlimit="10" pointer-events="stroke"/><path d="M 313.33 320.41 L 290.32 215.41" fill="none" stroke="#ffd966" stroke-width="2" stroke-miterlimit="10" pointer-events="stroke"/><path d="M 421 307.39 L 325.25 215.41" fill="none" stroke="#ffd966" stroke-width="2" stroke-miterlimit="10" pointer-events="stroke"/><rect x="0.71" y="320.41" width="30" height="60" rx="2" ry="2" fill="#ff9999" stroke="#ffffff" stroke-width="2" pointer-events="all"/><path d="M 0.71 330.41 L 30.71 330.41 M 0.71 350.41 L 30.71 350.41" fill="none" stroke="#ffffff" stroke-width="2" stroke-linejoin="round" stroke-miterlimit="10" pointer-events="all"/><rect x="20.71" y="325.41" width="80" height="45" fill="#ff9999" stroke="#ffffff" stroke-width="2" pointer-events="all"/><rect x="50.71" y="370.41" width="20" height="10" fill="#ff9999" stroke="#ffffff" stroke-width="2" pointer-events="all"/><path d="M 35.71 379.41 L 85.71 379.41 L 95.71 390.41 L 25.71 390.41 Z" fill="#ff9999" stroke="#ffffff" stroke-width="2" stroke-linejoin="round" stroke-miterlimit="10" pointer-events="all"/><path d="M 49.71 387.91 L 67.71 387.91 M 36.71 384.91 L 75.71 384.91 M 38.71 381.91 L 74.71 381.91 M 77.71 381.91 L 84.71 381.91 M 79.71 384.91 L 86.71 384.91 M 81.71 387.91 L 88.71 387.91" fill="none" stroke="#ffffff" stroke-width="2" stroke-linejoin="round" stroke-miterlimit="10" pointer-events="all"/><rect x="23.71" y="328.41" width="73" height="39" fill="#ffffff" stroke="none" pointer-events="all"/><ellipse cx="5.71" cy="355.41" rx="2" ry="2" fill="#ffffff" stroke="none" pointer-events="all"/><rect x="136" y="320.41" width="30" height="60" rx="2" ry="2" fill="#33ff99" stroke="#ffffff" stroke-width="2" pointer-events="all"/><path d="M 136 330.41 L 166 330.41 M 136 350.41 L 166 350.41" fill="none" stroke="#ffffff" stroke-width="2" stroke-linejoin="round" stroke-miterlimit="10" pointer-events="all"/><rect x="156" y="325.41" width="80" height="45" fill="#33ff99" stroke="#ffffff" stroke-width="2" pointer-events="all"/><rect x="186" y="370.41" width="20" height="10" fill="#33ff99" stroke="#ffffff" stroke-width="2" pointer-events="all"/><path d="M 171 379.41 L 221 379.41 L 231 390.41 L 161 390.41 Z" fill="#33ff99" stroke="#ffffff" stroke-width="2" stroke-linejoin="round" stroke-miterlimit="10" pointer-events="all"/><path d="M 185 387.91 L 203 387.91 M 172 384.91 L 211 384.91 M 174 381.91 L 210 381.91 M 213 381.91 L 220 381.91 M 215 384.91 L 222 384.91 M 217 387.91 L 224 387.91" fill="none" stroke="#ffffff" stroke-width="2" stroke-linejoin="round" stroke-miterlimit="10" pointer-events="all"/><rect x="159" y="328.41" width="73" height="39" fill="#ffffff" stroke="none" pointer-events="all"/><ellipse cx="141" cy="355.41" rx="2" ry="2" fill="#ffffff" stroke="none" pointer-events="all"/><rect x="271" y="320.41" width="30" height="60" rx="2" ry="2" fill="#66b2ff" stroke="#ffffff" stroke-width="2" pointer-events="all"/><path d="M 271 330.41 L 301 330.41 M 271 350.41 L 301 350.41" fill="none" stroke="#ffffff" stroke-width="2" stroke-linejoin="round" stroke-miterlimit="10" pointer-events="all"/><rect x="291" y="325.41" width="80" height="45" fill="#66b2ff" stroke="#ffffff" stroke-width="2" pointer-events="all"/><rect x="321" y="370.41" width="20" height="10" fill="#66b2ff" stroke="#ffffff" stroke-width="2" pointer-events="all"/><path d="M 306 379.41 L 356 379.41 L 366 390.41 L 296 390.41 Z" fill="#66b2ff" stroke="#ffffff" stroke-width="2" stroke-linejoin="round" stroke-miterlimit="10" pointer-events="all"/><path d="M 320 387.91 L 338 387.91 M 307 384.91 L 346 384.91 M 309 381.91 L 345 381.91 M 348 381.91 L 355 381.91 M 350 384.91 L 357 384.91 M 352 387.91 L 359 387.91" fill="none" stroke="#ffffff" stroke-width="2" stroke-linejoin="round" stroke-miterlimit="10" pointer-events="all"/><rect x="294" y="328.41" width="73" height="39" fill="#ffffff" stroke="none" pointer-events="all"/><ellipse cx="276" cy="355.41" rx="2" ry="2" fill="#ffffff" stroke="none" pointer-events="all"/><rect x="421" y="345.41" width="100" height="40" fill="#ff99ff" stroke="#ffffff" stroke-width="2" pointer-events="all"/><rect x="429" y="385.41" width="84" height="6" fill="#ff99ff" stroke="#ffffff" stroke-width="2" pointer-events="all"/><rect x="441" y="305.41" width="60" height="40" fill="#ff99ff" stroke="#ffffff" stroke-width="2" pointer-events="all"/><path d="M 501 375.41 L 511 405.41 L 431 405.41 L 441 375.41 Z M 446 383.41 L 496 383.41 M 443 391.41 L 499 391.41 M 439 399.41 L 503 399.41" fill="#ff99ff" stroke="#ffffff" stroke-width="2" stroke-miterlimit="10" pointer-events="all"/><rect x="431" y="350.41" width="25" height="3" fill="#ffffff" stroke="none" pointer-events="all"/><ellipse cx="506" cy="355.41" rx="5" ry="5" fill="#ffffff" stroke="none" pointer-events="all"/><path d="M 224.49 150.55 L 149.49 134.44 L 163.49 121.9 L 107.22 104.16 L 182.22 120.27 L 168.22 132.81 Z" fill="#fff2cc" stroke="none" pointer-events="all"/><path d="M 71 71.64 C 71 68.53 73.46 66 76.49 66 L 95.28 66 C 98.29 66.03 100.71 68.55 100.71 71.64 L 100.71 119.77 C 100.71 122.86 98.29 125.38 95.28 125.41 L 76.49 125.41 C 75.03 125.41 73.64 124.82 72.61 123.76 C 71.58 122.7 71 121.26 71 119.77 Z" fill="#ff66b3" stroke="#ffffff" stroke-width="1.16" stroke-miterlimit="10" pointer-events="all"/><path d="M 72.16 71.35 L 72.16 120.06 L 99.55 120.13 L 99.55 71.35 Z" fill="#ffffff" stroke="none" pointer-events="all"/><rect x="82.27" y="121.73" width="7.11" height="2.14" rx="1.07" ry="1.07" fill="#ffffff" stroke="none" pointer-events="all"/><path d="M 404.95 38.57 L 476.81 38.57 L 491 56 L 391 56 Z M 407.5 1 L 474 1 L 475.98 38.14 L 405.53 38.14 Z" fill="#ffcc99" stroke="#ffffff" stroke-width="1.9" stroke-linejoin="round" stroke-miterlimit="10" pointer-events="all"/><path d="M 408 42.9 L 474.99 42.9 M 403.56 47.67 L 479.42 47.67 M 422.77 51.95 L 457.26 51.95" fill="none" stroke="#ffffff" stroke-width="1.9" stroke-linejoin="round" stroke-miterlimit="10" pointer-events="all"/><path d="M 410.75 4.33 L 470.85 4.33 L 472.53 34.81 L 408.98 34.81 Z" fill="#ffffff" stroke="none" pointer-events="all"/><path d="M 401.59 33.6 L 363.13 96.57 L 356.19 79.87 L 322.2 125.32 L 360.66 62.34 L 367.6 79.04 Z" fill="#fff2cc" stroke="none" pointer-events="all"/><rect x="231" y="186.62" width="100" height="24.82" rx="4.96" ry="4.96" fill="#ffe599" stroke="#ffe599" stroke-width="1.99" pointer-events="all"/><rect x="241" y="211.44" width="80" height="3.97" fill="#ffe599" stroke="#ffe599" stroke-width="1.99" pointer-events="all"/><path d="M 298 186.62 L 298.5 141.93 C 298.78 141.51 299.25 141.26 299.75 141.26 C 300.25 141.26 300.72 141.51 301 141.93 L 301.5 186.62 Z" fill="#ffe599" stroke="#ffe599" stroke-width="1.99" stroke-miterlimit="10" pointer-events="all"/><ellipse cx="319" cy="199.03" rx="8" ry="7.94392523364486" fill="#ffffff" stroke="none" pointer-events="all"/><ellipse cx="306" cy="191.58" rx="2" ry="1.985981308411215" fill="#ffffff" stroke="none" pointer-events="all"/><ellipse cx="306" cy="206.47" rx="2" ry="1.985981308411215" fill="#ffffff" stroke="none" pointer-events="all"/><ellipse cx="306" cy="199.03" rx="2" ry="1.985981308411215" fill="#ffffff" stroke="none" pointer-events="all"/><ellipse cx="296.5" cy="203.5" rx="2" ry="1.985981308411215" fill="#ffffff" stroke="none" pointer-events="all"/><ellipse cx="288" cy="203.5" rx="2" ry="1.985981308411215" fill="#ffffff" stroke="none" pointer-events="all"/><ellipse cx="279.5" cy="203.5" rx="2" ry="1.985981308411215" fill="#ffffff" stroke="none" pointer-events="all"/><ellipse cx="271" cy="203.5" rx="2" ry="1.985981308411215" fill="#ffffff" stroke="none" pointer-events="all"/><ellipse cx="262.5" cy="203.5" rx="2" ry="1.985981308411215" fill="#ffffff" stroke="none" pointer-events="all"/><ellipse cx="254" cy="203.5" rx="2" ry="1.985981308411215" fill="#ffffff" stroke="none" pointer-events="all"/><ellipse cx="245.5" cy="203.5" rx="2" ry="1.985981308411215" fill="#ffffff" stroke="none" pointer-events="all"/><ellipse cx="237" cy="203.5" rx="2" ry="1.985981308411215" fill="#ffffff" stroke="none" pointer-events="all"/><path d="M 234 193.57 L 240 193.57 L 240 196.54 L 238 196.54 L 238 197.54 L 236 197.54 L 236 196.54 L 234 196.54 Z M 242.5 193.57 L 248.5 193.57 L 248.5 196.54 L 246.5 196.54 L 246.5 197.54 L 244.5 197.54 L 244.5 196.54 L 242.5 196.54 Z M 251 193.57 L 257 193.57 L 257 196.54 L 255 196.54 L 255 197.54 L 253 197.54 L 253 196.54 L 251 196.54 Z M 259.5 193.57 L 265.5 193.57 L 265.5 196.54 L 263.5 196.54 L 263.5 197.54 L 261.5 197.54 L 261.5 196.54 L 259.5 196.54 Z M 268 193.57 L 274 193.57 L 274 196.54 L 272 196.54 L 272 197.54 L 270 197.54 L 270 196.54 L 268 196.54 Z M 276.5 193.57 L 282.5 193.57 L 282.5 196.54 L 280.5 196.54 L 280.5 197.54 L 278.5 197.54 L 278.5 196.54 L 276.5 196.54 Z M 285 193.57 L 291 193.57 L 291 196.54 L 289 196.54 L 289 197.54 L 287 197.54 L 287 196.54 L 285 196.54 Z M 293.5 193.57 L 299.5 193.57 L 299.5 196.54 L 297.5 196.54 L 297.5 197.54 L 295.5 197.54 L 295.5 196.54 L 293.5 196.54 Z" fill="#ffffff" stroke="none" pointer-events="all"/><rect x="231" y="130.41" width="0" height="0" fill="none" stroke="#ffe599" stroke-width="1.99" pointer-events="all"/><path d="M 321 197.04 L 323 199.03 L 321 201.01 M 314 199.03 L 323 199.03" fill="none" stroke="#ffe599" stroke-width="1.99" stroke-miterlimit="10" pointer-events="all"/><path d="M 304.8 136.27 C 307 139.58 307 143.88 304.8 147.19 L 303.3 146.2 C 304.97 143.6 304.97 140.27 303.3 137.66 Z M 308.8 133.29 C 312.79 138.33 312.79 145.43 308.8 150.47 L 307.3 149.28 C 310.7 144.96 310.7 138.9 307.3 134.58 Z M 312.8 130.41 C 318.83 136.88 318.83 146.88 312.8 153.35 L 311.3 152.16 C 316.82 146.4 316.82 137.36 311.3 131.6 Z M 294.8 136.27 C 292.6 139.58 292.6 143.88 294.8 147.19 L 296.3 146.2 C 294.63 143.6 294.63 140.27 296.3 137.66 Z M 290.8 133.29 C 286.76 138.35 286.76 145.51 290.8 150.57 L 292.3 149.18 C 289 144.9 289 138.96 292.3 134.68 Z M 286.8 130.51 C 280.83 136.97 280.83 146.89 286.8 153.35 L 288.3 152.16 C 282.84 146.42 282.84 137.44 288.3 131.7 Z" fill="#ffe599" stroke="#ffe599" stroke-width="1.99" stroke-miterlimit="10" pointer-events="all"/></g></svg>